<svg width="64" height="57" viewBox="0 0 64 57" fill="none" xmlns="http://www.w3.org/2000/svg">
<path d="M55.25 0.0625C52.8926 0.0625 51 1.87158 51 4.125V52.875C51 55.1284 52.8926 56.9375 55.25 56.9375H59.5C61.8574 56.9375 63.75 55.1284 63.75 52.875V4.125C63.75 1.87158 61.8574 0.0625 59.5 0.0625H55.25ZM38.25 12.25C35.8926 12.25 34 14.0591 34 16.3125V52.875C34 55.1284 35.8926 56.9375 38.25 56.9375H42.5C44.8574 56.9375 46.75 55.1284 46.75 52.875V16.3125C46.75 14.0591 44.8574 12.25 42.5 12.25H38.25ZM21.25 24.4375C18.8926 24.4375 17 26.2466 17 28.5V52.875C17 55.1284 18.8926 56.9375 21.25 56.9375H25.5C27.8574 56.9375 29.75 55.1284 29.75 52.875V28.5C29.75 26.2466 27.8574 24.4375 25.5 24.4375H21.25ZM4.25 36.625C1.89258 36.625 0 38.4341 0 40.6875V52.875C0 55.1284 1.89258 56.9375 4.25 56.9375H8.5C10.8574 56.9375 12.75 55.1284 12.75 52.875V40.6875C12.75 38.4341 10.8574 36.625 8.5 36.625H4.25Z" fill="#201F54"/>
</svg>
