<svg width="31" height="25" viewBox="0 0 31 25" fill="none" xmlns="http://www.w3.org/2000/svg">
<g clip-path="url(#clip0_1259_3585)">
<path d="M30.225 10.1562H27.125V7.03125C27.125 6.60156 26.7762 6.25 26.35 6.25H24.8C24.3737 6.25 24.025 6.60156 24.025 7.03125V10.1562H20.925C20.4987 10.1562 20.15 10.5078 20.15 10.9375V12.5C20.15 12.9297 20.4987 13.2812 20.925 13.2812H24.025V16.4062C24.025 16.8359 24.3737 17.1875 24.8 17.1875H26.35C26.7762 17.1875 27.125 16.8359 27.125 16.4062V13.2812H30.225C30.6512 13.2812 31 12.9297 31 12.5V10.9375C31 10.5078 30.6512 10.1562 30.225 10.1562ZM10.85 12.5C14.2745 12.5 17.05 9.70215 17.05 6.25C17.05 2.79785 14.2745 0 10.85 0C7.42547 0 4.65 2.79785 4.65 6.25C4.65 9.70215 7.42547 12.5 10.85 12.5ZM15.19 14.0625H14.3811C13.3058 14.5605 12.1094 14.8438 10.85 14.8438C9.59062 14.8438 8.39906 14.5605 7.31891 14.0625H6.51C2.91594 14.0625 0 17.002 0 20.625V22.6562C0 23.9502 1.04141 25 2.325 25H19.375C20.6586 25 21.7 23.9502 21.7 22.6562V20.625C21.7 17.002 18.7841 14.0625 15.19 14.0625Z" fill="white"/>
</g>
<defs>
<clipPath id="clip0_1259_3585">
<rect width="31" height="25" fill="white"/>
</clipPath>
</defs>
</svg>
