<svg width="60" height="60" viewBox="0 0 60 60" fill="none" xmlns="http://www.w3.org/2000/svg">
<path d="M48.75 56.25H45V50.625C44.9971 48.1395 44.0084 45.7566 42.2509 43.9991C40.4934 42.2416 38.1105 41.2529 35.625 41.25H24.375C21.8895 41.2529 19.5066 42.2416 17.7491 43.9991C15.9916 45.7566 15.0029 48.1395 15 50.625V56.25H11.25V50.625C11.2541 47.1453 12.6382 43.8093 15.0987 41.3487C17.5593 38.8882 20.8953 37.5041 24.375 37.5H35.625C39.1047 37.5041 42.4408 38.8882 44.9013 41.3487C47.3618 43.8093 48.7459 47.1453 48.75 50.625V56.25Z" fill="#201F54"/>
<path d="M9.375 11.25C8.87772 11.25 8.40081 11.4475 8.04918 11.7992C7.69754 12.1508 7.5 12.6277 7.5 13.125V30H11.25V13.125C11.25 12.6277 11.0525 12.1508 10.7008 11.7992C10.3492 11.4475 9.87228 11.25 9.375 11.25Z" fill="#201F54"/>
<path d="M7.5 3.75V7.5H16.875V20.625C16.875 24.106 18.2578 27.4444 20.7192 29.9058C23.1806 32.3672 26.519 33.75 30 33.75C33.481 33.75 36.8194 32.3672 39.2808 29.9058C41.7422 27.4444 43.125 24.106 43.125 20.625V7.5H52.5V3.75H7.5ZM20.625 7.5H39.375V13.125H20.625V7.5ZM30 30C27.5136 30 25.129 29.0123 23.3709 27.2541C21.6127 25.496 20.625 23.1114 20.625 20.625V16.875H39.375V20.625C39.375 23.1114 38.3873 25.496 36.6291 27.2541C34.871 29.0123 32.4864 30 30 30Z" fill="#201F54"/>
</svg>
