<svg width="65" height="59" viewBox="0 0 65 59" fill="none" xmlns="http://www.w3.org/2000/svg">
<path d="M28 0L5.64712 12.0826C-0.64668 15.4847 -0.646682 24.5153 5.64711 27.9174L23.7199 37.6865C26.3907 39.1301 29.6092 39.13 32.2799 37.6861L45.5786 30.4963C51.3104 27.3974 58.2727 31.548 58.2727 38.0639V43.303C58.2727 45.1607 59.7787 46.6667 61.6364 46.6667C63.494 46.6667 65 45.1607 65 43.303V20M13.1081 38.6132C9.20099 36.5002 4.45455 39.3294 4.45455 43.7713C4.45455 45.9248 5.6349 47.905 7.52913 48.9294L23.7188 57.6847C26.3901 59.1294 29.6099 59.1294 32.2812 57.6847L48.4709 48.9294C50.3651 47.905 51.5455 45.9248 51.5455 43.7713C51.5455 39.3294 46.799 36.5002 42.8919 38.6132L32.2812 44.3514C29.6099 45.796 26.3901 45.796 23.7188 44.3514L13.1081 38.6132Z" fill="#3B5CAB"/>
</svg>
