<svg width="35" height="35" viewBox="0 0 35 35" fill="none" xmlns="http://www.w3.org/2000/svg">
<path d="M31.5 10.0625C31.5 9.33763 30.9123 8.75 30.1875 8.75H4.8125C4.08762 8.75 3.5 9.33763 3.5 10.0625C3.5 10.7874 4.08763 11.375 4.8125 11.375H30.1875C30.9123 11.375 31.5 10.7874 31.5 10.0625Z" fill="white"/>
<path d="M31.5 15.3125C31.5 14.5876 30.9123 14 30.1875 14H4.8125C4.08762 14 3.5 14.5876 3.5 15.3125C3.5 16.0374 4.08763 16.625 4.8125 16.625H21.3596C22.5818 16.0633 23.9417 15.75 25.375 15.75C26.8083 15.75 28.1682 16.0633 29.3904 16.625H30.1875C30.9123 16.625 31.5 16.0374 31.5 15.3125Z" fill="white"/>
<path d="M15.9087 27.125H4.8125C4.08763 27.125 3.5 26.5373 3.5 25.8125C3.5 25.0877 4.08762 24.5 4.8125 24.5H15.7892C15.7633 24.7882 15.75 25.0801 15.75 25.375C15.75 25.9726 15.8045 26.5575 15.9087 27.125Z" fill="white"/>
<path d="M16.4061 21.875H4.8125C4.08763 21.875 3.5 21.2873 3.5 20.5625C3.5 19.8377 4.08762 19.25 4.8125 19.25H17.9501C17.305 20.031 16.7808 20.9157 16.4061 21.875Z" fill="white"/>
<path d="M18.2307 22.8525C19.6617 24.2296 19.6617 26.5198 18.2307 27.8967L17.9717 28.1459C18.2687 28.9952 18.6983 29.7789 19.2347 30.4699L19.5827 30.367C21.5032 29.7997 23.5073 30.9563 23.9768 32.903L24.0997 33.4126C24.5149 33.4826 24.9411 33.519 25.3752 33.519C25.8096 33.519 26.2357 33.4826 26.651 33.4126L26.7738 32.903C27.2434 30.9563 29.2475 29.7997 31.1679 30.367L31.516 30.4699C32.0524 29.7789 32.482 28.9952 32.7788 28.1459L32.52 27.8967C31.089 26.5198 31.089 24.2296 32.52 22.8525L32.779 22.6035C32.482 21.7542 32.0524 20.9706 31.516 20.2795L31.1679 20.3824C29.2475 20.9498 27.2434 19.7932 26.7738 17.8463L26.651 17.3369C26.2357 17.2669 25.8096 17.2305 25.3752 17.2305C24.9411 17.2305 24.5149 17.2669 24.0997 17.3369L23.9768 17.8463C23.5073 19.7932 21.5032 20.9498 19.5827 20.3824L19.2347 20.2795C18.6983 20.9706 18.2687 21.7542 17.9717 22.6035L18.2307 22.8525ZM25.3752 27.5959C24.1898 27.5959 23.2287 26.6014 23.2287 25.3746C23.2287 24.1481 24.1898 23.1535 25.3752 23.1535C26.5609 23.1535 27.522 24.1481 27.522 25.3746C27.522 26.6014 26.5609 27.5959 25.3752 27.5959Z" fill="white"/>
</svg>
