<svg width="35" height="27" viewBox="0 0 35 27" fill="none" xmlns="http://www.w3.org/2000/svg">
<path d="M17.5 0C7.8349 0 0 7.77094 0 17.3571C0 20.5393 0.865885 23.5201 2.37344 26.0839C2.71432 26.6637 3.36389 27 4.0408 27H30.9592C31.6361 27 32.2857 26.6637 32.6266 26.0839C34.1341 23.5201 35 20.5393 35 17.3571C35 7.77094 27.1651 0 17.5 0ZM17.5 3.85714C18.3938 3.85714 19.1151 4.46766 19.3424 5.28248C19.2749 5.41868 19.1819 5.53741 19.1327 5.68446L18.5725 7.35208C18.2608 7.56241 17.9059 7.71429 17.5006 7.71429C16.4269 7.71429 15.5562 6.85065 15.5562 5.78571C15.5562 4.72078 16.4263 3.85714 17.5 3.85714ZM5.83333 21.2143C4.75964 21.2143 3.88889 20.3506 3.88889 19.2857C3.88889 18.2208 4.75964 17.3571 5.83333 17.3571C6.90703 17.3571 7.77778 18.2208 7.77778 19.2857C7.77778 20.3506 6.90703 21.2143 5.83333 21.2143ZM8.75 11.5714C7.6763 11.5714 6.80556 10.7078 6.80556 9.64286C6.80556 8.57792 7.6763 7.71429 8.75 7.71429C9.8237 7.71429 10.6944 8.57792 10.6944 9.64286C10.6944 10.7078 9.8237 11.5714 8.75 11.5714ZM23.7447 7.20743L20.0181 18.2967C20.8499 19.0043 21.3889 20.0415 21.3889 21.2143C21.3889 21.9206 21.1835 22.5733 20.8493 23.1429H14.1507C13.8165 22.5733 13.6111 21.9206 13.6111 21.2143C13.6111 19.1688 15.2214 17.512 17.2509 17.3819L20.9781 6.29196C21.2315 5.535 22.0555 5.11975 22.8229 5.3777C23.5867 5.63022 23.9987 6.44987 23.7447 7.20743ZM24.6355 10.6548L25.5786 7.84929C25.7894 7.77154 26.0118 7.71489 26.25 7.71489C27.3237 7.71489 28.1944 8.57853 28.1944 9.64346C28.1944 10.7084 27.3237 11.572 26.25 11.572C25.5585 11.5714 24.9806 11.1935 24.6355 10.6548ZM29.1667 21.2143C28.093 21.2143 27.2222 20.3506 27.2222 19.2857C27.2222 18.2208 28.093 17.3571 29.1667 17.3571C30.2404 17.3571 31.1111 18.2208 31.1111 19.2857C31.1111 20.3506 30.2404 21.2143 29.1667 21.2143Z" fill="#1C2E5A"/>
</svg>
