<svg width="25" height="25" viewBox="0 0 25 25" fill="none" xmlns="http://www.w3.org/2000/svg">
<g clip-path="url(#clip0_964_3490)">
<path d="M21.4613 12.9392H17.6083L17.6083 11.0127H21.4613V12.9392ZM21.4613 14.0401H17.6083L17.6083 15.9666H21.4613V14.0401ZM21.4613 4.95797H17.6083L17.6083 6.88448H21.4613V4.95797ZM21.4613 7.98534H17.6083L17.6083 9.91185H21.4613V7.98534ZM21.4613 17.0675H17.6083L17.6083 18.994H21.4613V17.0675ZM24.1227 20.8654C24.0126 21.4379 23.3245 21.4517 22.8649 21.4709H14.3057V23.9479H12.5966L0 21.7461V2.48378L12.6709 0.279297H14.3057V2.47278L22.5705 2.47277C23.0356 2.49203 23.5475 2.45901 23.952 2.73697C24.2355 3.14429 24.208 3.6617 24.2273 4.12957L24.2162 18.4573C24.2025 19.2582 24.2906 20.0756 24.1227 20.8654ZM10.0922 16.5473C9.33257 15.0061 8.55921 13.4759 7.80237 11.9347C8.55096 10.4348 9.28854 8.92933 10.0234 7.4239C9.39862 7.45417 8.77388 7.4927 8.15189 7.53674C7.68678 8.66788 7.1446 9.76874 6.78132 10.9384C6.4428 9.83479 5.9942 8.77246 5.58413 7.69637C4.97866 7.72939 4.37318 7.76517 3.76771 7.80095C4.40621 9.21005 5.08599 10.5999 5.70522 12.0173C4.9759 13.3933 4.29337 14.7887 3.58606 16.173C4.18878 16.1978 4.79151 16.2226 5.39423 16.2308C5.82357 15.1355 6.35749 14.0814 6.73178 12.964C7.06754 14.1639 7.63724 15.2731 8.10511 16.4207C8.76838 16.4675 9.4289 16.5088 10.0922 16.5473ZM22.9147 3.77986H14.3057L14.3057 4.95797H16.5074V6.88448H14.3057V7.98534H16.5074V9.91185H14.3057V11.0127H16.5074V12.9392H14.3057V14.0401H16.5074V15.9666H14.3057V17.0675H16.5074V18.994H14.3057V20.2667H22.9147V3.77986Z" fill="black"/>
</g>
<defs>
<clipPath id="clip0_964_3490">
<rect width="24.2273" height="24.2273" fill="white"/>
</clipPath>
</defs>
</svg>
