<svg width="106" height="120" viewBox="0 0 106 120" fill="none" xmlns="http://www.w3.org/2000/svg">
<path d="M52.9698 60.4525C69.3982 60.4525 82.7129 47.1279 82.7129 30.6872C82.7129 14.2465 69.3982 0.921875 52.9698 0.921875C36.5414 0.921875 23.2268 14.2465 23.2268 30.6872C23.2268 47.1279 36.5414 60.4525 52.9698 60.4525ZM73.79 67.8939H69.9094C64.7509 70.2658 59.0114 71.6145 52.9698 71.6145C46.9283 71.6145 41.212 70.2658 36.0302 67.8939H32.1497C14.908 67.8939 0.919464 81.8929 0.919464 99.1474V108.821C0.919464 114.984 5.91537 119.983 12.0731 119.983H93.8665C100.024 119.983 105.02 114.984 105.02 108.821V99.1474C105.02 81.8929 91.0316 67.8939 73.79 67.8939Z" fill="#201F54"/>
</svg>
