<svg width="35" height="35" viewBox="0 0 35 35" fill="none" xmlns="http://www.w3.org/2000/svg">
<path d="M21.1346 10.2984H26.6538C27.0576 10.2984 27.3942 9.96184 27.3942 9.55799C27.3942 9.35607 27.3269 9.22145 27.1923 9.01953L20.3269 2.22145C20.125 2.08684 19.9903 2.01953 19.7884 2.01953C19.3846 2.01953 19.048 2.35607 19.048 2.75992V8.21184C19.048 9.35607 19.9903 10.2984 21.1346 10.2984Z" fill="white"/>
<path d="M33.3173 17.2993L32.7115 16.6935C32.3077 16.2897 31.7019 16.2897 31.2308 16.6935L23.2211 24.7031C23.1538 24.7704 23.2211 24.8377 23.2211 24.905V26.5877C23.2211 26.7224 23.2211 26.857 23.3558 26.857H25.1058C25.1731 26.857 25.2404 26.7897 25.3077 26.7897L33.3173 18.8474C33.7884 18.3089 33.7884 17.7031 33.3173 17.2993Z" fill="white"/>
<path d="M26.8557 29.8849H25.6442H23.2211H22.0769C21 29.8849 20.125 29.0099 20.125 27.933V24.2984C20.125 23.7599 20.2596 23.2215 20.7307 22.8849L27.125 16.4907C27.3269 16.2888 27.4615 16.0195 27.4615 15.7503V14.4041C27.4615 13.8657 26.9904 13.3945 26.4519 13.3945H19.0481C17.2981 13.3945 15.9519 11.9811 15.9519 10.2984V3.02915C15.9519 2.49069 15.4807 2.01953 14.875 2.01953H4.44228C2.75959 2.01953 1.34613 3.43299 1.34613 5.11568V29.8849C1.34613 31.5676 2.75959 32.9811 4.44228 32.9811H24.2307C25.7115 32.9811 27.0577 31.9041 27.3269 30.4907C27.3942 30.2215 27.125 29.8849 26.8557 29.8849ZM5.51921 11.308C5.51921 10.7695 5.99036 10.2984 6.52882 10.2984H10.7019C11.3077 10.2984 11.7115 10.7695 11.7115 11.308V12.3176C11.7115 12.8561 11.2404 13.3272 10.7019 13.3272H6.52882C5.92305 13.3272 5.51921 12.8561 5.51921 12.3176V11.308ZM15.9519 24.7022C15.9519 25.2407 15.4807 25.7118 14.9423 25.7118H6.52882C5.92305 25.7118 5.51921 25.2407 5.51921 24.7022V23.6926C5.51921 23.1541 5.99036 22.683 6.52882 22.683H14.875C15.4807 22.683 15.8846 23.1541 15.8846 23.6926V24.7022H15.9519ZM18.0384 18.5099C18.0384 19.0484 17.5673 19.5195 17.0288 19.5195H6.52882C5.92305 19.5195 5.51921 19.0484 5.51921 18.5099V17.5003C5.51921 16.9618 5.99036 16.4907 6.52882 16.4907H16.9615C17.5673 16.4907 17.9711 16.9618 17.9711 17.5003V18.5099H18.0384Z" fill="white"/>
</svg>
