<svg width="21" height="22" viewBox="0 0 21 22" fill="none" xmlns="http://www.w3.org/2000/svg">
<g clip-path="url(#clip0_964_3463)">
<path fill-rule="evenodd" clip-rule="evenodd" d="M19.7797 3.12657V19.3785C13.7797 18.991 10.7797 19.4904 10.7797 20.8766C10.7797 20.8766 10.7797 9.83196 10.7797 5.49565C10.7797 3.13289 13.7797 2.3432 19.7797 3.12657Z" stroke="black" stroke-width="2" stroke-linecap="round" stroke-linejoin="round"/>
<path fill-rule="evenodd" clip-rule="evenodd" d="M1.77966 3.12657V19.3785L2.52932 19.3338L3.24639 19.2988L3.93086 19.2734L4.58274 19.2577C4.68867 19.2559 4.79324 19.2544 4.89645 19.2534L5.49944 19.2521L6.06984 19.2605L6.60764 19.2785L7.11284 19.3061C7.27581 19.3169 7.43335 19.3293 7.58545 19.3433L8.02547 19.3902C9.79098 19.6057 10.7077 20.072 10.7756 20.7893L10.7797 20.8427V5.49565C10.7797 3.56687 8.78049 2.68636 4.78216 2.85412L4.16741 2.88715C4.06246 2.89396 3.95625 2.90143 3.8488 2.90956L3.18907 2.96617C2.96417 2.98766 2.73426 3.01177 2.49936 3.03851L1.77966 3.12657Z" stroke="black" stroke-width="2" stroke-linecap="round" stroke-linejoin="round"/>
</g>
<defs>
<clipPath id="clip0_964_3463">
<rect width="20" height="21" fill="white" transform="translate(0.779663 0.876953)"/>
</clipPath>
</defs>
</svg>
