<svg width="18" height="18" viewBox="0 0 18 18" fill="none" xmlns="http://www.w3.org/2000/svg">
<path d="M1.31946 17.3673H16.3664C16.8836 17.3673 17.3068 16.9441 17.3068 16.4268C17.3068 15.9096 16.8836 15.4864 16.3664 15.4864H1.31946C0.802223 15.4864 0.379028 15.9096 0.379028 16.4268C0.379028 16.9441 0.802223 17.3673 1.31946 17.3673ZM6.96206 13.6055H16.3664C16.8836 13.6055 17.3068 13.1823 17.3068 12.6651C17.3068 12.1478 16.8836 11.7247 16.3664 11.7247H6.96206C6.44482 11.7247 6.02163 12.1478 6.02163 12.6651C6.02163 13.1823 6.44482 13.6055 6.96206 13.6055ZM1.31946 9.84379H16.3664C16.8836 9.84379 17.3068 9.42059 17.3068 8.90335C17.3068 8.38611 16.8836 7.96292 16.3664 7.96292H1.31946C0.802223 7.96292 0.379028 8.38611 0.379028 8.90335C0.379028 9.42059 0.802223 9.84379 1.31946 9.84379ZM6.96206 6.08205H16.3664C16.8836 6.08205 17.3068 5.65886 17.3068 5.14162C17.3068 4.62438 16.8836 4.20119 16.3664 4.20119H6.96206C6.44482 4.20119 6.02163 4.62438 6.02163 5.14162C6.02163 5.65886 6.44482 6.08205 6.96206 6.08205ZM0.379028 1.37989C0.379028 1.89712 0.802223 2.32032 1.31946 2.32032H16.3664C16.8836 2.32032 17.3068 1.89712 17.3068 1.37989C17.3068 0.862648 16.8836 0.439453 16.3664 0.439453H1.31946C0.802223 0.439453 0.379028 0.862648 0.379028 1.37989Z" fill="#B65E0C"/>
</svg>
