<svg width="32" height="35" viewBox="0 0 32 35" fill="none" xmlns="http://www.w3.org/2000/svg">
<path d="M27.5814 1.45801H23.2939C22.0252 1.45801 21.0918 1.98301 20.6689 2.91634C20.4356 3.33926 20.3335 3.83509 20.3335 4.41842V8.70592C20.3335 10.558 21.4418 11.6663 23.2939 11.6663H27.5814C28.1647 11.6663 28.6606 11.5643 29.0835 11.3309C30.0168 10.908 30.5418 9.97467 30.5418 8.70592V4.41842C30.5418 2.56634 29.4335 1.45801 27.5814 1.45801ZM28.9522 7.18926C28.8064 7.33509 28.5877 7.43717 28.3543 7.45176H26.2981V8.19551L26.3127 9.47884C26.2981 9.72676 26.2106 9.93092 26.0356 10.1059C25.8897 10.2518 25.671 10.3538 25.4377 10.3538C24.9564 10.3538 24.5627 9.96009 24.5627 9.47884V7.43717L22.521 7.45176C22.0397 7.45176 21.646 7.04342 21.646 6.56217C21.646 6.08092 22.0397 5.68717 22.521 5.68717L23.8043 5.70176H24.5627V3.66009C24.5627 3.17884 24.9564 2.77051 25.4377 2.77051C25.9189 2.77051 26.3127 3.17884 26.3127 3.66009L26.2981 4.69551V5.68717H28.3543C28.8356 5.68717 29.2293 6.08092 29.2293 6.56217C29.2147 6.81009 29.1127 7.01426 28.9522 7.18926Z" fill="white"/>
<path d="M10.1266 15.1389C12.0434 15.1389 13.5974 13.585 13.5974 11.6681C13.5974 9.75122 12.0434 8.19727 10.1266 8.19727C8.20972 8.19727 6.65576 9.75122 6.65576 11.6681C6.65576 13.585 8.20972 15.1389 10.1266 15.1389Z" fill="white"/>
<path d="M27.5813 11.666H26.8959V18.3889L26.7063 18.2285C25.5688 17.2514 23.7313 17.2514 22.5938 18.2285L16.5272 23.4348C15.3897 24.4118 13.5522 24.4118 12.4147 23.4348L11.9188 23.0264C10.8834 22.1223 9.2355 22.0348 8.06883 22.8223L2.61466 26.4827C2.29383 25.666 2.10425 24.7181 2.10425 23.6098V11.3889C2.10425 7.27643 4.27716 5.10352 8.38966 5.10352H20.3334V4.4181C20.3334 3.83477 20.4355 3.33893 20.6688 2.91602H8.38966C3.08133 2.91602 -0.083252 6.0806 -0.083252 11.3889V23.6098C-0.083252 25.1993 0.193831 26.5848 0.733415 27.7514C1.98758 30.5223 4.67091 32.0827 8.38966 32.0827H20.6105C25.9188 32.0827 29.0834 28.9181 29.0834 23.6098V11.3306C28.6605 11.5639 28.1647 11.666 27.5813 11.666Z" fill="white"/>
</svg>
