<svg width="34" height="32" viewBox="0 0 34 32" fill="none" xmlns="http://www.w3.org/2000/svg">
<path d="M30.7546 20.7124C27.6792 20.7124 26.4218 22.8822 27.951 25.5435C28.8346 27.086 28.3078 29.0524 26.7616 29.9338L23.8221 31.612C22.4798 32.4087 20.7466 31.9341 19.948 30.5949L19.7611 30.2728C18.2319 27.6115 15.7171 27.6115 14.1709 30.2728L13.984 30.5949C13.2194 31.9341 11.4863 32.4087 10.1439 31.612L7.2044 29.9338C5.65817 29.0524 5.13143 27.0691 6.01499 25.5265C7.56122 22.8822 6.30385 20.7124 3.22839 20.7124C1.46127 20.7124 0 19.2716 0 17.4917V14.5083C0 12.7454 1.44428 11.2876 3.22839 11.2876C6.30385 11.2876 7.56122 9.11784 6.01499 6.45652C5.13143 4.91397 5.65817 2.94763 7.2044 2.06617L10.1439 0.388013C11.4863 -0.40869 13.2194 0.0659392 14.018 1.40508L14.2049 1.72715C15.7341 4.38848 18.2489 4.38848 19.7951 1.72715L19.982 1.40508C20.7806 0.0659392 22.5137 -0.40869 23.8561 0.388013L26.7956 2.06617C28.3418 2.94763 28.8686 4.93092 27.985 6.45652C26.4388 9.11784 27.6962 11.2876 30.7716 11.2876C32.5387 11.2876 34 12.7284 34 14.5083V17.4917C33.983 19.2546 32.5387 20.7124 30.7546 20.7124ZM16.9915 10.4909C13.95 10.4909 11.4693 12.9657 11.4693 16C11.4693 19.0343 13.95 21.5091 16.9915 21.5091C20.033 21.5091 22.5137 19.0343 22.5137 16C22.5137 12.9657 20.033 10.4909 16.9915 10.4909Z" fill="white"/>
</svg>
