<svg width="20" height="28" viewBox="0 0 20 28" fill="none" xmlns="http://www.w3.org/2000/svg">
<path d="M8.97229 26.7947C1.40469 15.8239 0 14.6979 0 10.666C0 5.14315 4.47714 0.666016 10 0.666016C15.5229 0.666016 20 5.14315 20 10.666C20 14.6979 18.5953 15.8239 11.0277 26.7947C10.5311 27.5121 9.46885 27.512 8.97229 26.7947ZM10 14.8327C12.3012 14.8327 14.1667 12.9672 14.1667 10.666C14.1667 8.36482 12.3012 6.49935 10 6.49935C7.6988 6.49935 5.83333 8.36482 5.83333 10.666C5.83333 12.9672 7.6988 14.8327 10 14.8327Z" fill="#FF9900"/>
</svg>
