<svg width="13" height="18" viewBox="0 0 13 18" fill="none" xmlns="http://www.w3.org/2000/svg">
<path d="M2.28146 0.878906H10.8394C11.8518 0.878906 12.6732 1.58974 12.6732 2.46589V16.2197C12.6732 17.0959 11.8518 17.8067 10.8394 17.8067H2.28146C1.26903 17.8067 0.447617 17.0959 0.447617 16.2197V2.46589C0.447617 1.58974 1.26903 0.878906 2.28146 0.878906ZM6.56043 16.7487C7.23666 16.7487 7.783 16.2759 7.783 15.6907C7.783 15.1055 7.23666 14.6327 6.56043 14.6327C5.8842 14.6327 5.33787 15.1055 5.33787 15.6907C5.33787 16.2759 5.8842 16.7487 6.56043 16.7487ZM2.28146 13.178C2.28146 13.3962 2.48777 13.5748 2.73992 13.5748H10.3809C10.6331 13.5748 10.8394 13.3962 10.8394 13.178V2.86263C10.8394 2.64442 10.6331 2.46589 10.3809 2.46589H2.73992C2.48777 2.46589 2.28146 2.64442 2.28146 2.86263V13.178Z" fill="#A22D2D"/>
</svg>
