<svg width="35" height="35" viewBox="0 0 35 35" fill="none" xmlns="http://www.w3.org/2000/svg">
<path d="M30.1404 12.3023C27.3684 5.85183 22.9094 0.94483 20.6536 1.86008C16.8229 3.41933 22.9356 10.8971 4.12136 18.5428C2.49561 19.2061 2.08436 21.8468 2.76511 23.4288C3.44411 25.0073 5.66661 26.5806 7.29236 25.9208C7.57411 25.8053 8.60661 25.4728 8.60661 25.4728C9.76686 27.0321 10.9814 26.1081 11.4136 27.0968L13.4401 31.7518C13.8234 32.6303 14.6914 33.4441 15.3214 33.2043L18.9089 31.8411C19.7279 31.5296 19.9221 30.7981 19.6719 30.2241C19.4024 29.6028 18.2964 29.4208 17.9796 28.6963C17.6646 27.9753 16.6339 25.6548 16.3381 24.9233C15.9356 23.9293 16.7914 23.1191 18.0356 22.9913C26.6001 22.0953 28.2014 27.3873 31.1169 26.2008C33.3691 25.2821 32.9106 18.7476 30.1404 12.3023ZM29.1761 22.7603C28.6739 22.9616 25.3034 20.3068 23.1509 15.2931C20.9966 10.2828 21.2679 5.70308 21.7684 5.49833C22.2689 5.29708 25.5571 8.50308 27.7096 13.5133C29.8639 18.5236 29.6766 22.5556 29.1761 22.7603Z" fill="white"/>
</svg>
