<svg width="39" height="39" viewBox="0 0 39 39" fill="none" xmlns="http://www.w3.org/2000/svg">
<g id="arrow-right-circle 1" clip-path="url(#clip0_1089_3651)">
<path id="Vector" fill-rule="evenodd" clip-rule="evenodd" d="M19.5 36.5625C24.0253 36.5625 28.3652 34.7648 31.565 31.565C34.7648 28.3652 36.5625 24.0253 36.5625 19.5C36.5625 14.9747 34.7648 10.6348 31.565 7.43499C28.3652 4.23515 24.0253 2.4375 19.5 2.4375C14.9747 2.4375 10.6348 4.23515 7.43499 7.43499C4.23515 10.6348 2.4375 14.9747 2.4375 19.5C2.4375 24.0253 4.23515 28.3652 7.43499 31.565C10.6348 34.7648 14.9747 36.5625 19.5 36.5625ZM19.5 39C24.6717 39 29.6316 36.9455 33.2886 33.2886C36.9455 29.6316 39 24.6717 39 19.5C39 14.3283 36.9455 9.36838 33.2886 5.71142C29.6316 2.05446 24.6717 0 19.5 0C14.3283 0 9.36838 2.05446 5.71142 5.71142C2.05446 9.36838 0 14.3283 0 19.5C0 24.6717 2.05446 29.6316 5.71142 33.2886C9.36838 36.9455 14.3283 39 19.5 39Z" fill="white"/>
<path id="Vector_2" fill-rule="evenodd" clip-rule="evenodd" d="M9.75 19.5001C9.75 19.8233 9.8784 20.1333 10.107 20.3619C10.3355 20.5904 10.6455 20.7188 10.9688 20.7188H25.0892L19.8559 25.9497C19.7426 26.063 19.6527 26.1975 19.5913 26.3456C19.53 26.4936 19.4985 26.6523 19.4985 26.8126C19.4985 26.9728 19.53 27.1315 19.5913 27.2796C19.6527 27.4276 19.7426 27.5621 19.8559 27.6755C19.9692 27.7888 20.1037 27.8787 20.2518 27.94C20.3998 28.0013 20.5585 28.0329 20.7188 28.0329C20.879 28.0329 21.0377 28.0013 21.1857 27.94C21.3338 27.8787 21.4683 27.7888 21.5816 27.6755L28.8941 20.363C29.0076 20.2497 29.0977 20.1152 29.1591 19.9672C29.2206 19.8191 29.2522 19.6604 29.2522 19.5001C29.2522 19.3398 29.2206 19.181 29.1591 19.033C29.0977 18.8849 29.0076 18.7504 28.8941 18.6372L21.5816 11.3247C21.4683 11.2114 21.3338 11.1215 21.1857 11.0602C21.0377 10.9988 20.879 10.9673 20.7188 10.9673C20.5585 10.9673 20.3998 10.9988 20.2518 11.0602C20.1037 11.1215 19.9692 11.2114 19.8559 11.3247C19.7426 11.438 19.6527 11.5725 19.5913 11.7206C19.53 11.8686 19.4985 12.0273 19.4985 12.1876C19.4985 12.3478 19.53 12.5065 19.5913 12.6546C19.6527 12.8026 19.7426 12.9371 19.8559 13.0505L25.0892 18.2813H10.9688C10.6455 18.2813 10.3355 18.4097 10.107 18.6383C9.8784 18.8668 9.75 19.1768 9.75 19.5001Z" fill="white"/>
</g>
<defs>
<clipPath id="clip0_1089_3651">
<rect width="39" height="39" fill="white"/>
</clipPath>
</defs>
</svg>
