<svg width="18" height="18" viewBox="0 0 18 18" fill="none" xmlns="http://www.w3.org/2000/svg">
<path d="M13.5 17.3328C10.0977 17.3284 6.83609 15.9749 4.43032 13.5691C2.02456 11.1633 0.671066 7.9017 0.666656 4.49944C0.666656 3.48278 1.07052 2.50776 1.78941 1.78887C2.5083 1.06998 3.48333 0.666111 4.49999 0.666111C4.71527 0.664471 4.9302 0.684009 5.14166 0.724444C5.34608 0.754695 5.54705 0.804935 5.74166 0.874444C5.87853 0.922469 6.0005 1.00539 6.0955 1.115C6.1905 1.22462 6.25524 1.35713 6.28332 1.49944L7.42499 6.49944C7.45576 6.63516 7.45206 6.77643 7.41421 6.91035C7.37636 7.04427 7.30558 7.16657 7.20832 7.26611C7.09999 7.38278 7.09166 7.39111 6.06666 7.92444C6.88749 9.72516 8.32766 11.1712 10.125 11.9994C10.6667 10.9661 10.675 10.9578 10.7917 10.8494C10.8912 10.7522 11.0135 10.6814 11.1474 10.6436C11.2813 10.6057 11.4226 10.602 11.5583 10.6328L16.5583 11.7744C16.6961 11.8064 16.8234 11.8729 16.9284 11.9677C17.0334 12.0624 17.1125 12.1823 17.1583 12.3161C17.2287 12.5139 17.2816 12.7175 17.3167 12.9244C17.3502 13.1339 17.3669 13.3457 17.3667 13.5578C17.3513 14.5701 16.9361 15.5352 16.2116 16.2425C15.4872 16.9497 14.5124 17.3417 13.5 17.3328Z" fill="#FF9900"/>
</svg>
