<svg width="61" height="61" viewBox="0 0 61 61" fill="none" xmlns="http://www.w3.org/2000/svg">
<path d="M54.0714 0.5H6.92857C3.37946 0.5 0.5 3.37946 0.5 6.92857V54.0714C0.5 57.6205 3.37946 60.5 6.92857 60.5H54.0714C57.6205 60.5 60.5 57.6205 60.5 54.0714V6.92857C60.5 3.37946 57.6205 0.5 54.0714 0.5ZM21.9286 45.5C21.9286 46.6839 20.9696 47.6429 19.7857 47.6429H15.5C14.3161 47.6429 13.3571 46.6839 13.3571 45.5V28.3571C13.3571 27.1732 14.3161 26.2143 15.5 26.2143H19.7857C20.9696 26.2143 21.9286 27.1732 21.9286 28.3571V45.5ZM34.7857 45.5C34.7857 46.6839 33.8268 47.6429 32.6429 47.6429H28.3571C27.1732 47.6429 26.2143 46.6839 26.2143 45.5V15.5C26.2143 14.3161 27.1732 13.3571 28.3571 13.3571H32.6429C33.8268 13.3571 34.7857 14.3161 34.7857 15.5V45.5ZM47.6429 45.5C47.6429 46.6839 46.6839 47.6429 45.5 47.6429H41.2143C40.0304 47.6429 39.0714 46.6839 39.0714 45.5V36.9286C39.0714 35.7446 40.0304 34.7857 41.2143 34.7857H45.5C46.6839 34.7857 47.6429 35.7446 47.6429 36.9286V45.5Z" fill="#201F54"/>
</svg>
