<svg width="35" height="35" viewBox="0 0 35 35" fill="none" xmlns="http://www.w3.org/2000/svg">
<path d="M31.25 0H3.75C1.67969 0 0 1.67969 0 3.75V31.25C0 33.3203 1.67969 35 3.75 35H31.25C33.3203 35 35 33.3203 35 31.25V3.75C35 1.67969 33.3203 0 31.25 0ZM12.5 26.25C12.5 26.9406 11.9406 27.5 11.25 27.5H8.75C8.05937 27.5 7.5 26.9406 7.5 26.25V16.25C7.5 15.5594 8.05937 15 8.75 15H11.25C11.9406 15 12.5 15.5594 12.5 16.25V26.25ZM20 26.25C20 26.9406 19.4406 27.5 18.75 27.5H16.25C15.5594 27.5 15 26.9406 15 26.25V8.75C15 8.05937 15.5594 7.5 16.25 7.5H18.75C19.4406 7.5 20 8.05937 20 8.75V26.25ZM27.5 26.25C27.5 26.9406 26.9406 27.5 26.25 27.5H23.75C23.0594 27.5 22.5 26.9406 22.5 26.25V21.25C22.5 20.5594 23.0594 20 23.75 20H26.25C26.9406 20 27.5 20.5594 27.5 21.25V26.25Z" fill="white"/>
</svg>
