<svg width="218" height="32" viewBox="0 0 218 32" fill="none" xmlns="http://www.w3.org/2000/svg">
<path d="M15.1679 31.5691C23.3594 31.5691 29.9999 24.5021 29.9999 15.7845C29.9999 7.06698 23.3594 0 15.1679 0C6.9764 0 0.335876 7.06698 0.335876 15.7845C0.335876 24.5021 6.9764 31.5691 15.1679 31.5691Z" fill="#E6E7E8"/>
<path d="M5.58892 12.6845C5.35252 12.5855 5.54731 9.894 7.30728 8.17958C8.54186 6.97762 10.033 6.75561 11.1967 6.60058C12.8986 6.37043 14.819 6.7379 18.5982 7.48817C20.4561 7.85612 21.8996 8.20111 23.0185 7.33266C23.6024 6.88001 23.9984 6.17329 24.2074 6.28286C24.4259 6.39866 24.302 7.35515 23.9271 8.05326C23.1223 9.55475 21.157 9.87677 20.3559 9.99639C17.986 10.3505 17.323 9.48776 13.7477 8.9887C11.0746 8.61596 9.41568 8.40878 7.95109 9.38393C6.15683 10.5782 5.80703 12.7754 5.58892 12.6845Z" fill="#201F54"/>
<path d="M23.8656 19.067C23.5875 18.8138 21.1774 23.3695 17.106 23.6906C14.2244 23.9164 10.779 21.9986 9.61068 18.8693C8.02812 14.6338 11.3528 10.136 12.5938 9.01061C12.731 8.88717 13.3208 8.36849 13.2733 8.29911C13.2051 8.1991 11.8261 9.04794 11.0455 9.64269C10.5192 10.0437 6.62161 13.0136 6.7972 17.7234C6.91517 20.8866 8.80042 22.9733 9.15754 23.3547C11.4941 25.8514 14.9994 26.517 17.8047 25.6461C22.2286 24.2738 24.1426 19.3196 23.8656 19.067Z" fill="#201F54"/>
<path d="M13.8777 7.54884C11.6609 9.38527 13.7565 19.1947 13.4104 20.3952C13.3393 20.632 13.2492 20.862 13.141 21.0828C13.0189 21.3213 12.8733 21.5458 12.7067 21.7527C12.0798 22.5518 11.5786 22.9312 11.612 22.9776C11.681 23.0733 12.9837 22.1939 14.142 21.2388C15.4808 20.1345 15.7844 19.6239 15.9381 19.1244C16.0611 18.7253 16.0515 18.4545 16.0487 17.6827C16.0451 16.6157 16.0739 15.5487 16.0867 14.4816C16.1109 12.404 16.1717 11.8887 16.1054 9.89821C16.0492 8.20963 15.949 7.59861 15.5201 7.3297C15.0825 7.05696 14.3418 7.16414 13.8777 7.54884Z" fill="#201F54"/>
<path d="M58.9805 9.832V11.64H56.0045V21H53.7645V11.64H50.7885V9.832H58.9805ZM62.7109 11.08C62.3162 11.08 61.9855 10.9573 61.7189 10.712C61.4629 10.456 61.3349 10.1413 61.3349 9.768C61.3349 9.39467 61.4629 9.08533 61.7189 8.84C61.9855 8.584 62.3162 8.456 62.7109 8.456C63.1055 8.456 63.4309 8.584 63.6869 8.84C63.9535 9.08533 64.0869 9.39467 64.0869 9.768C64.0869 10.1413 63.9535 10.456 63.6869 10.712C63.4309 10.9573 63.1055 11.08 62.7109 11.08ZM63.8149 12.136V21H61.5749V12.136H63.8149ZM69.228 9.16V21H66.988V9.16H69.228ZM76.3371 21.144C75.4838 21.144 74.7158 20.9573 74.0331 20.584C73.3505 20.2 72.8118 19.6613 72.4171 18.968C72.0331 18.2747 71.8411 17.4747 71.8411 16.568C71.8411 15.6613 72.0385 14.8613 72.4331 14.168C72.8385 13.4747 73.3878 12.9413 74.0811 12.568C74.7745 12.184 75.5478 11.992 76.4011 11.992C77.2545 11.992 78.0278 12.184 78.7211 12.568C79.4145 12.9413 79.9585 13.4747 80.3531 14.168C80.7585 14.8613 80.9611 15.6613 80.9611 16.568C80.9611 17.4747 80.7531 18.2747 80.3371 18.968C79.9318 19.6613 79.3771 20.2 78.6731 20.584C77.9798 20.9573 77.2011 21.144 76.3371 21.144ZM76.3371 19.192C76.7425 19.192 77.1211 19.096 77.4731 18.904C77.8358 18.7013 78.1238 18.4027 78.3371 18.008C78.5505 17.6133 78.6571 17.1333 78.6571 16.568C78.6571 15.7253 78.4331 15.08 77.9851 14.632C77.5478 14.1733 77.0091 13.944 76.3691 13.944C75.7291 13.944 75.1905 14.1733 74.7531 14.632C74.3265 15.08 74.1131 15.7253 74.1131 16.568C74.1131 17.4107 74.3211 18.0613 74.7371 18.52C75.1638 18.968 75.6971 19.192 76.3371 19.192ZM86.1723 13.976V18.264C86.1723 18.5627 86.2416 18.7813 86.3803 18.92C86.5296 19.048 86.7749 19.112 87.1163 19.112H88.1563V21H86.7483C84.8603 21 83.9163 20.0827 83.9163 18.248V13.976H82.8603V12.136H83.9163V9.944H86.1723V12.136H88.1563V13.976H86.1723ZM93.3354 13.976V18.264C93.3354 18.5627 93.4047 18.7813 93.5434 18.92C93.6927 19.048 93.938 19.112 94.2794 19.112H95.3194V21H93.9114C92.0234 21 91.0794 20.0827 91.0794 18.248V13.976H90.0234V12.136H91.0794V9.944H93.3354V12.136H95.3194V13.976H93.3354ZM97.3145 16.536C97.3145 15.64 97.4905 14.8453 97.8425 14.152C98.2052 13.4587 98.6905 12.9253 99.2985 12.552C99.9172 12.1787 100.605 11.992 101.363 11.992C102.024 11.992 102.6 12.1253 103.091 12.392C103.592 12.6587 103.992 12.9947 104.291 13.4V12.136H106.547V21H104.291V19.704C104.003 20.12 103.603 20.4667 103.091 20.744C102.589 21.0107 102.008 21.144 101.347 21.144C100.6 21.144 99.9172 20.952 99.2985 20.568C98.6905 20.184 98.2052 19.6453 97.8425 18.952C97.4905 18.248 97.3145 17.4427 97.3145 16.536ZM104.291 16.568C104.291 16.024 104.184 15.56 103.971 15.176C103.757 14.7813 103.469 14.4827 103.107 14.28C102.744 14.0667 102.355 13.96 101.939 13.96C101.523 13.96 101.139 14.0613 100.787 14.264C100.435 14.4667 100.147 14.7653 99.9225 15.16C99.7092 15.544 99.6025 16.0027 99.6025 16.536C99.6025 17.0693 99.7092 17.5387 99.9225 17.944C100.147 18.3387 100.435 18.6427 100.787 18.856C101.149 19.0693 101.533 19.176 101.939 19.176C102.355 19.176 102.744 19.0747 103.107 18.872C103.469 18.6587 103.757 18.36 103.971 17.976C104.184 17.5813 104.291 17.112 104.291 16.568ZM120.702 12.008C121.79 12.008 122.665 12.344 123.326 13.016C123.998 13.6773 124.334 14.6053 124.334 15.8V21H122.094V16.104C122.094 15.4107 121.918 14.8827 121.566 14.52C121.214 14.1467 120.734 13.96 120.126 13.96C119.518 13.96 119.033 14.1467 118.67 14.52C118.318 14.8827 118.142 15.4107 118.142 16.104V21H115.902V16.104C115.902 15.4107 115.726 14.8827 115.374 14.52C115.022 14.1467 114.542 13.96 113.934 13.96C113.316 13.96 112.825 14.1467 112.462 14.52C112.11 14.8827 111.934 15.4107 111.934 16.104V21H109.694V12.136H111.934V13.208C112.222 12.8347 112.59 12.5413 113.038 12.328C113.497 12.1147 113.998 12.008 114.542 12.008C115.236 12.008 115.854 12.1573 116.398 12.456C116.942 12.744 117.364 13.16 117.662 13.704C117.95 13.192 118.366 12.7813 118.91 12.472C119.465 12.1627 120.062 12.008 120.702 12.008ZM126.844 16.536C126.844 15.64 127.02 14.8453 127.372 14.152C127.735 13.4587 128.22 12.9253 128.828 12.552C129.447 12.1787 130.135 11.992 130.892 11.992C131.553 11.992 132.129 12.1253 132.62 12.392C133.121 12.6587 133.521 12.9947 133.82 13.4V12.136H136.076V21H133.82V19.704C133.532 20.12 133.132 20.4667 132.62 20.744C132.119 21.0107 131.537 21.144 130.876 21.144C130.129 21.144 129.447 20.952 128.828 20.568C128.22 20.184 127.735 19.6453 127.372 18.952C127.02 18.248 126.844 17.4427 126.844 16.536ZM133.82 16.568C133.82 16.024 133.713 15.56 133.5 15.176C133.287 14.7813 132.999 14.4827 132.636 14.28C132.273 14.0667 131.884 13.96 131.468 13.96C131.052 13.96 130.668 14.0613 130.316 14.264C129.964 14.4667 129.676 14.7653 129.452 15.16C129.239 15.544 129.132 16.0027 129.132 16.536C129.132 17.0693 129.239 17.5387 129.452 17.944C129.676 18.3387 129.964 18.6427 130.316 18.856C130.679 19.0693 131.063 19.176 131.468 19.176C131.884 19.176 132.273 19.0747 132.636 18.872C132.999 18.6587 133.287 18.36 133.5 17.976C133.713 17.5813 133.82 17.112 133.82 16.568ZM143.452 15.4C143.452 14.3013 143.697 13.32 144.188 12.456C144.689 11.5813 145.367 10.904 146.22 10.424C147.084 9.93333 148.049 9.688 149.116 9.688C150.364 9.688 151.457 10.008 152.396 10.648C153.335 11.288 153.991 12.1733 154.364 13.304H151.788C151.532 12.7707 151.169 12.3707 150.7 12.104C150.241 11.8373 149.708 11.704 149.1 11.704C148.449 11.704 147.868 11.8587 147.356 12.168C146.855 12.4667 146.46 12.8933 146.172 13.448C145.895 14.0027 145.756 14.6533 145.756 15.4C145.756 16.136 145.895 16.7867 146.172 17.352C146.46 17.9067 146.855 18.3387 147.356 18.648C147.868 18.9467 148.449 19.096 149.1 19.096C149.708 19.096 150.241 18.9627 150.7 18.696C151.169 18.4187 151.532 18.0133 151.788 17.48H154.364C153.991 18.6213 153.335 19.512 152.396 20.152C151.468 20.7813 150.375 21.096 149.116 21.096C148.049 21.096 147.084 20.856 146.22 20.376C145.367 19.8853 144.689 19.208 144.188 18.344C143.697 17.48 143.452 16.4987 143.452 15.4ZM156.661 16.536C156.661 15.64 156.837 14.8453 157.189 14.152C157.552 13.4587 158.037 12.9253 158.645 12.552C159.264 12.1787 159.952 11.992 160.709 11.992C161.371 11.992 161.947 12.1253 162.437 12.392C162.939 12.6587 163.339 12.9947 163.637 13.4V12.136H165.893V21H163.637V19.704C163.349 20.12 162.949 20.4667 162.437 20.744C161.936 21.0107 161.355 21.144 160.693 21.144C159.947 21.144 159.264 20.952 158.645 20.568C158.037 20.184 157.552 19.6453 157.189 18.952C156.837 18.248 156.661 17.4427 156.661 16.536ZM163.637 16.568C163.637 16.024 163.531 15.56 163.317 15.176C163.104 14.7813 162.816 14.4827 162.453 14.28C162.091 14.0667 161.701 13.96 161.285 13.96C160.869 13.96 160.485 14.0613 160.133 14.264C159.781 14.4667 159.493 14.7653 159.269 15.16C159.056 15.544 158.949 16.0027 158.949 16.536C158.949 17.0693 159.056 17.5387 159.269 17.944C159.493 18.3387 159.781 18.6427 160.133 18.856C160.496 19.0693 160.88 19.176 161.285 19.176C161.701 19.176 162.091 19.0747 162.453 18.872C162.816 18.6587 163.104 18.36 163.317 17.976C163.531 17.5813 163.637 17.112 163.637 16.568ZM180.049 12.008C181.137 12.008 182.012 12.344 182.673 13.016C183.345 13.6773 183.681 14.6053 183.681 15.8V21H181.441V16.104C181.441 15.4107 181.265 14.8827 180.913 14.52C180.561 14.1467 180.081 13.96 179.473 13.96C178.865 13.96 178.38 14.1467 178.017 14.52C177.665 14.8827 177.489 15.4107 177.489 16.104V21H175.249V16.104C175.249 15.4107 175.073 14.8827 174.721 14.52C174.369 14.1467 173.889 13.96 173.281 13.96C172.662 13.96 172.172 14.1467 171.809 14.52C171.457 14.8827 171.281 15.4107 171.281 16.104V21H169.041V12.136H171.281V13.208C171.569 12.8347 171.937 12.5413 172.385 12.328C172.844 12.1147 173.345 12.008 173.889 12.008C174.582 12.008 175.201 12.1573 175.745 12.456C176.289 12.744 176.71 13.16 177.009 13.704C177.297 13.192 177.713 12.7813 178.257 12.472C178.812 12.1627 179.409 12.008 180.049 12.008ZM189.007 13.416C189.295 13.0107 189.689 12.6747 190.191 12.408C190.703 12.1307 191.284 11.992 191.935 11.992C192.692 11.992 193.375 12.1787 193.983 12.552C194.601 12.9253 195.087 13.4587 195.439 14.152C195.801 14.8347 195.983 15.6293 195.983 16.536C195.983 17.4427 195.801 18.248 195.439 18.952C195.087 19.6453 194.601 20.184 193.983 20.568C193.375 20.952 192.692 21.144 191.935 21.144C191.284 21.144 190.708 21.0107 190.207 20.744C189.716 20.4773 189.316 20.1413 189.007 19.736V25.224H186.767V12.136H189.007V13.416ZM193.695 16.536C193.695 16.0027 193.583 15.544 193.359 15.16C193.145 14.7653 192.857 14.4667 192.495 14.264C192.143 14.0613 191.759 13.96 191.343 13.96C190.937 13.96 190.553 14.0667 190.191 14.28C189.839 14.4827 189.551 14.7813 189.327 15.176C189.113 15.5707 189.007 16.0347 189.007 16.568C189.007 17.1013 189.113 17.5653 189.327 17.96C189.551 18.3547 189.839 18.6587 190.191 18.872C190.553 19.0747 190.937 19.176 191.343 19.176C191.759 19.176 192.143 19.0693 192.495 18.856C192.857 18.6427 193.145 18.3387 193.359 17.944C193.583 17.5493 193.695 17.08 193.695 16.536ZM206.939 12.136V21H204.683V19.88C204.395 20.264 204.016 20.568 203.547 20.792C203.088 21.0053 202.587 21.112 202.043 21.112C201.349 21.112 200.736 20.968 200.203 20.68C199.669 20.3813 199.248 19.9493 198.939 19.384C198.64 18.808 198.491 18.1253 198.491 17.336V12.136H200.731V17.016C200.731 17.72 200.907 18.264 201.259 18.648C201.611 19.0213 202.091 19.208 202.699 19.208C203.317 19.208 203.803 19.0213 204.155 18.648C204.507 18.264 204.683 17.72 204.683 17.016V12.136H206.939ZM213.501 21.144C212.775 21.144 212.125 21.016 211.549 20.76C210.973 20.4933 210.514 20.136 210.173 19.688C209.842 19.24 209.661 18.744 209.629 18.2H211.885C211.927 18.5413 212.093 18.824 212.381 19.048C212.679 19.272 213.047 19.384 213.485 19.384C213.911 19.384 214.242 19.2987 214.477 19.128C214.722 18.9573 214.845 18.7387 214.845 18.472C214.845 18.184 214.695 17.9707 214.397 17.832C214.109 17.6827 213.645 17.5227 213.005 17.352C212.343 17.192 211.799 17.0267 211.373 16.856C210.957 16.6853 210.594 16.424 210.285 16.072C209.986 15.72 209.837 15.2453 209.837 14.648C209.837 14.1573 209.975 13.7093 210.253 13.304C210.541 12.8987 210.946 12.5787 211.469 12.344C212.002 12.1093 212.626 11.992 213.341 11.992C214.397 11.992 215.239 12.2587 215.869 12.792C216.498 13.3147 216.845 14.024 216.909 14.92H214.765C214.733 14.568 214.583 14.2907 214.317 14.088C214.061 13.8747 213.714 13.768 213.277 13.768C212.871 13.768 212.557 13.8427 212.333 13.992C212.119 14.1413 212.013 14.3493 212.013 14.616C212.013 14.9147 212.162 15.144 212.461 15.304C212.759 15.4533 213.223 15.608 213.853 15.768C214.493 15.928 215.021 16.0933 215.437 16.264C215.853 16.4347 216.21 16.7013 216.509 17.064C216.818 17.416 216.978 17.8853 216.989 18.472C216.989 18.984 216.845 19.4427 216.557 19.848C216.279 20.2533 215.874 20.5733 215.341 20.808C214.818 21.032 214.205 21.144 213.501 21.144Z" fill="white"/>
</svg>
