<svg width="28" height="28" viewBox="0 0 28 28" fill="none" xmlns="http://www.w3.org/2000/svg">
<path d="M27.9494 13.9747C27.9494 6.25454 21.6896 0 13.9747 0C6.25454 0 0 6.25454 0 13.9747C0 20.9481 5.10862 26.7301 11.7911 27.7773V18.0151H8.24244V13.9756H11.7911V10.895C11.7911 7.39348 13.8742 5.45973 17.0675 5.45973C18.5968 5.45973 20.1978 5.73224 20.1978 5.73224V9.17089H18.4326C16.6997 9.17089 16.1582 10.2496 16.1582 11.3544V13.9747H20.0336L19.4108 18.0142H16.1582V27.7764C22.8355 26.7292 27.9494 20.9472 27.9494 13.9738V13.9747Z" fill="white"/>
</svg>
