<svg width="28" height="28" viewBox="0 0 28 28" fill="none" xmlns="http://www.w3.org/2000/svg">
<path d="M14.0255 0C6.3082 0 0.0507812 6.21831 0.0507812 13.8873C0.0507812 21.5564 6.3082 27.7747 14.0255 27.7747C21.7427 27.7747 28.0001 21.5564 28.0001 13.8873C28.0001 6.21831 21.7427 0 14.0255 0ZM20.7414 10.4682C20.7508 10.6139 20.7508 10.7658 20.7508 10.9146C20.7508 15.4652 17.2633 20.707 10.8905 20.707C8.92533 20.707 7.10363 20.1397 5.56891 19.1633C5.84965 19.1943 6.11792 19.2067 6.4049 19.2067C8.02696 19.2067 9.51801 18.6611 10.7065 17.7374C9.18424 17.7064 7.9053 16.7144 7.46859 15.3505C8.002 15.428 8.48238 15.428 9.03139 15.2885C8.24758 15.1302 7.54307 14.7072 7.03755 14.0913C6.53203 13.4753 6.25668 12.7045 6.25829 11.9096V11.8662C6.71683 12.1235 7.25648 12.2816 7.82108 12.3033C7.34645 11.989 6.9572 11.5631 6.68786 11.0635C6.41851 10.5638 6.27739 10.0059 6.277 9.43905C6.277 8.79738 6.44545 8.21151 6.74802 7.70313C7.61802 8.76743 8.70364 9.63788 9.93433 10.2579C11.165 10.878 12.5132 11.2337 13.8913 11.3021C13.4016 8.96168 15.1609 7.06766 17.2758 7.06766C18.274 7.06766 19.1724 7.48305 19.8056 8.15261C20.5886 8.00692 21.3372 7.71553 22.0048 7.32495C21.7459 8.12161 21.2031 8.79428 20.4825 9.21896C21.1813 9.14457 21.855 8.95238 22.4789 8.68269C22.0079 9.37086 21.4183 9.98153 20.7414 10.4682Z" fill="white"/>
</svg>
