<svg width="33" height="28" viewBox="0 0 33 28" fill="none" xmlns="http://www.w3.org/2000/svg">
<g clip-path="url(#clip0_1259_3581)">
<path d="M4.95 12.25C6.77016 12.25 8.25 10.6805 8.25 8.75C8.25 6.81953 6.77016 5.25 4.95 5.25C3.12984 5.25 1.65 6.81953 1.65 8.75C1.65 10.6805 3.12984 12.25 4.95 12.25ZM28.05 12.25C29.8702 12.25 31.35 10.6805 31.35 8.75C31.35 6.81953 29.8702 5.25 28.05 5.25C26.2298 5.25 24.75 6.81953 24.75 8.75C24.75 10.6805 26.2298 12.25 28.05 12.25ZM29.7 14H26.4C25.4925 14 24.6727 14.3883 24.0745 15.0172C26.1525 16.2258 27.6272 18.4078 27.9469 21H31.35C32.2627 21 33 20.218 33 19.25V17.5C33 15.5695 31.5202 14 29.7 14ZM16.5 14C19.6917 14 22.275 11.2602 22.275 7.875C22.275 4.48984 19.6917 1.75 16.5 1.75C13.3083 1.75 10.725 4.48984 10.725 7.875C10.725 11.2602 13.3083 14 16.5 14ZM20.46 15.75H20.032C18.9595 16.2969 17.7684 16.625 16.5 16.625C15.2316 16.625 14.0456 16.2969 12.968 15.75H12.54C9.26062 15.75 6.6 18.5719 6.6 22.05V23.625C6.6 25.0742 7.70859 26.25 9.075 26.25H23.925C25.2914 26.25 26.4 25.0742 26.4 23.625V22.05C26.4 18.5719 23.7394 15.75 20.46 15.75ZM8.92547 15.0172C8.32734 14.3883 7.5075 14 6.6 14H3.3C1.47984 14 0 15.5695 0 17.5V19.25C0 20.218 0.737344 21 1.65 21H5.04797C5.37281 18.4078 6.8475 16.2258 8.92547 15.0172Z" fill="white"/>
</g>
<defs>
<clipPath id="clip0_1259_3581">
<rect width="33" height="28" fill="white"/>
</clipPath>
</defs>
</svg>
