<svg width="18" height="18" viewBox="0 0 18 18" fill="none" xmlns="http://www.w3.org/2000/svg">
<path d="M14.4934 5.95529C15.8958 5.95529 17.0326 4.81846 17.0326 3.41612C17.0326 2.01378 15.8958 0.876953 14.4934 0.876953C13.091 0.876953 11.9543 2.01378 11.9543 3.41612C11.9543 4.81846 13.091 5.95529 14.4934 5.95529Z" fill="#1C66C2"/>
<path d="M15.1704 7.15843C15.1535 7.15843 15.1366 7.1669 15.1197 7.1669C15.035 7.18382 14.9504 7.19229 14.8573 7.20922C14.5018 7.24307 14.1209 7.22614 13.7316 7.14997C13.63 7.12458 13.5454 7.10765 13.4523 7.07379C13.173 7.00608 12.9106 6.89605 12.6651 6.75216C12.5636 6.70138 12.462 6.63367 12.3689 6.57442C11.9626 6.29511 11.6156 5.9481 11.3363 5.54183C11.2771 5.44873 11.2093 5.34716 11.1586 5.24559C11.0147 5.00014 10.9046 4.73776 10.8369 4.45845C10.8031 4.36535 10.7861 4.28071 10.7608 4.17914C10.6846 3.7898 10.6677 3.40893 10.7015 3.05344C10.7184 2.96034 10.7269 2.8757 10.7438 2.79106C10.7438 2.77413 10.7523 2.7572 10.7523 2.74028C10.8539 2.21552 10.4645 1.72461 9.92283 1.72461H4.77678C4.65828 1.72461 4.53979 1.73307 4.42976 1.74154C4.32819 1.75 4.23509 1.75846 4.13352 1.77539C4.03196 1.78386 3.93039 1.80078 3.83729 1.81771C1.79749 2.11395 0.494045 3.40893 0.197809 5.45719C0.180881 5.55029 0.163953 5.65186 0.155489 5.75343C0.138561 5.85499 0.130097 5.94809 0.121634 6.04966C0.11317 6.15969 0.104706 6.27819 0.104706 6.39668V13.1339C0.104706 13.2524 0.11317 13.3709 0.121634 13.481C0.130097 13.5825 0.138561 13.6756 0.155489 13.7772C0.163953 13.8788 0.180881 13.9803 0.197809 14.0734C0.494045 16.1217 1.79749 17.4167 3.83729 17.7129C3.93039 17.7298 4.03196 17.7468 4.13352 17.7552C4.23509 17.7722 4.32819 17.7806 4.42976 17.7891C4.53979 17.7976 4.65828 17.806 4.77678 17.806H11.514C11.6325 17.806 11.751 17.7976 11.8611 17.7891C11.9626 17.7806 12.0557 17.7722 12.1573 17.7552C12.2589 17.7468 12.3604 17.7298 12.4535 17.7129C14.4933 17.4167 15.7968 16.1217 16.093 14.0734C16.1099 13.9803 16.1269 13.8788 16.1353 13.7772C16.1523 13.6756 16.1607 13.5825 16.1692 13.481C16.1776 13.3709 16.1861 13.2524 16.1861 13.1339V7.98789C16.1861 7.4462 15.6952 7.05687 15.1704 7.15843ZM4.12506 9.76531H8.35701C8.70403 9.76531 8.9918 10.0531 8.9918 10.4001C8.9918 10.7471 8.70403 11.0349 8.35701 11.0349H4.12506C3.77804 11.0349 3.49027 10.7471 3.49027 10.4001C3.49027 10.0531 3.77804 9.76531 4.12506 9.76531ZM11.7426 14.4205H4.12506C3.77804 14.4205 3.49027 14.1327 3.49027 13.7857C3.49027 13.4386 3.77804 13.1509 4.12506 13.1509H11.7426C12.0896 13.1509 12.3774 13.4386 12.3774 13.7857C12.3774 14.1327 12.0896 14.4205 11.7426 14.4205Z" fill="#1C66C2"/>
</svg>
