<svg width="61" height="61" viewBox="0 0 61 61" fill="none" xmlns="http://www.w3.org/2000/svg">
<path d="M30.5 0.5C13.931 0.5 0.5 13.931 0.5 30.5C0.5 47.069 13.931 60.5 30.5 60.5C47.069 60.5 60.5 47.069 60.5 30.5C60.5 13.931 47.069 0.5 30.5 0.5ZM40.4544 43.7581C39.9827 44.2274 39.4879 44.7198 39.0863 45.1226C38.7246 45.4855 38.4694 45.9331 38.3399 46.4181C38.1573 47.1028 38.0097 47.7948 37.7629 48.4589L35.6593 54.1262C33.9948 54.4891 32.2722 54.6935 30.5 54.6935V51.3815C30.7044 49.8548 29.5758 46.9952 27.7625 45.1819C27.0367 44.456 26.629 43.4714 26.629 42.4444V38.5722C26.629 37.1641 25.8706 35.8698 24.6379 35.1887C22.8996 34.227 20.427 32.8831 18.7335 32.0302C17.3448 31.331 16.0601 30.4407 14.9048 29.3992L14.8081 29.3121C13.9819 28.5664 13.2484 27.724 12.6234 26.8032C11.4887 25.1375 9.64032 22.3976 8.43911 20.6169C10.9153 15.1129 15.3778 10.6927 20.923 8.29153L23.8274 9.74435C25.1145 10.3879 26.629 9.45282 26.629 8.01331V6.64637C27.5956 6.49032 28.579 6.39113 29.5794 6.35363L33.0028 9.77702C33.7589 10.5331 33.7589 11.7585 33.0028 12.5145L32.4355 13.0806L31.1847 14.3315C30.8073 14.7089 30.8073 15.3222 31.1847 15.6996L31.752 16.2669C32.1294 16.6444 32.1294 17.2577 31.752 17.6351L30.7843 18.6028C30.6026 18.7842 30.3563 18.886 30.0996 18.8859H29.0121C28.7605 18.8859 28.5185 18.9839 28.3371 19.1605L27.1371 20.3278C26.99 20.4711 26.8922 20.6573 26.8579 20.8598C26.8235 21.0622 26.8544 21.2703 26.946 21.454L28.8319 25.227C29.1536 25.8706 28.6855 26.6278 27.9669 26.6278H27.2847C27.0512 26.6278 26.8262 26.5431 26.6508 26.3907L25.5282 25.4157C25.2742 25.1953 24.9672 25.0449 24.6374 24.9791C24.3075 24.9134 23.9663 24.9346 23.6472 25.0407L19.8766 26.2976C19.5887 26.3936 19.3384 26.5777 19.161 26.8239C18.9836 27.0701 18.8882 27.3659 18.8883 27.6694C18.8883 28.2173 19.198 28.7169 19.6879 28.9625L21.0282 29.6327C22.1665 30.2024 23.4222 30.4988 24.6948 30.4988C25.9673 30.4988 27.4274 33.8 28.5657 34.3698H36.6403C37.6673 34.3698 38.6508 34.7774 39.3778 35.5032L41.0339 37.1593C41.7257 37.8514 42.1143 38.79 42.1141 39.7685C42.1139 40.5101 41.9671 41.2442 41.6823 41.9289C41.3975 42.6135 40.9802 43.2352 40.4544 43.7581ZM50.9435 32.7077C50.2431 32.5323 49.6323 32.1028 49.2319 31.5016L47.0569 28.2391C46.7386 27.7625 46.5688 27.2022 46.5688 26.629C46.5688 26.0559 46.7386 25.4956 47.0569 25.019L49.4266 21.4649C49.7073 21.0452 50.0919 20.704 50.5444 20.479L52.1145 19.694C53.75 22.9504 54.6935 26.6133 54.6935 30.5C54.6935 31.5488 54.604 32.5758 54.4734 33.5895L50.9435 32.7077Z" fill="#201F54"/>
</svg>
