<svg width="62" height="62" viewBox="0 0 62 62" fill="none" xmlns="http://www.w3.org/2000/svg">
<path d="M6.96695 62C4.04855 62 1.97363 60.6946 0.742181 58.0837C-0.489269 55.4728 -0.188273 53.0467 1.64517 50.8056L18.6614 30.0436C19.98 28.4347 20.7006 26.4188 20.7006 24.3386V10.3223C20.7006 8.42608 19.1634 6.88889 17.2672 6.88889C15.371 6.88889 13.8338 5.34619 13.8338 3.44997C13.8338 1.54766 15.3759 0 17.2782 0H44.7234C46.6257 0 48.1679 1.54766 48.1679 3.44997C48.1679 5.34619 46.6307 6.88889 44.7345 6.88889C42.8382 6.88889 41.3011 8.42608 41.3011 10.3223V24.3386C41.3011 26.4188 42.0216 28.4348 43.3402 30.0436L60.3565 50.8056C62.1876 53.0444 62.4886 55.4705 61.2595 58.0837C60.0303 60.6969 57.9554 62.0023 55.0347 62H6.96695Z" fill="#3B5CAB"/>
</svg>
