<svg width="62" height="62" viewBox="0 0 62 62" fill="none" xmlns="http://www.w3.org/2000/svg">
<path d="M62 58.5556C62 60.4579 60.4579 62 58.5556 62H3.44444C1.54213 62 0 60.4579 0 58.5556C0 56.6532 1.54213 55.1111 3.44444 55.1111H58.5556C60.4579 55.1111 62 56.6532 62 58.5556ZM17.2222 31C17.2222 27.1954 14.138 24.1111 10.3333 24.1111C6.52871 24.1111 3.44444 27.1954 3.44444 31V41.3333C3.44444 45.138 6.52871 48.2222 10.3333 48.2222C14.138 48.2222 17.2222 45.138 17.2222 41.3333V31ZM37.8889 17.2222C37.8889 13.4176 34.8046 10.3333 31 10.3333C27.1954 10.3333 24.1111 13.4176 24.1111 17.2222V41.3333C24.1111 45.138 27.1954 48.2222 31 48.2222C34.8046 48.2222 37.8889 45.138 37.8889 41.3333V17.2222ZM58.5556 6.88889C58.5556 3.08427 55.4713 0 51.6667 0C47.862 0 44.7778 3.08426 44.7778 6.88889V41.3333C44.7778 45.138 47.862 48.2222 51.6667 48.2222C55.4713 48.2222 58.5556 45.138 58.5556 41.3333V6.88889Z" fill="#3B5CAB"/>
</svg>
