<svg width="70" height="70" viewBox="0 0 70 70" fill="none" xmlns="http://www.w3.org/2000/svg">
<path d="M33.1449 0C37.3911 0 40.8333 3.44224 40.8333 7.68845V17.5C40.8333 20.729 44.7373 22.346 47.0205 20.0628C48.4359 18.6474 50.7307 18.6474 52.1461 20.0628C54.4294 22.346 58.3333 20.729 58.3333 17.5V5.83333C58.3333 2.61167 60.945 0 64.1667 0C67.3883 0 70 2.61167 70 5.83333V61C70 65.9706 65.9706 70 61 70H26.5C21.5294 70 17.5 65.9706 17.5 61V9C17.5 4.02944 21.5294 0 26.5 0H33.1449ZM0 5.83334C0 2.61168 2.61167 0 5.83333 0C9.05499 0 11.6667 2.61167 11.6667 5.83333V64.1667C11.6667 67.3883 9.05499 70 5.83333 70C2.61167 70 0 67.3883 0 64.1667V5.83334Z" fill="#3B5CAB"/>
</svg>
