<svg width="63" height="81" viewBox="0 0 63 81" fill="none" xmlns="http://www.w3.org/2000/svg">
<path d="M45.3339 55.963H42.8026C42.8026 55.3099 42.4115 54.5259 42.1749 54.3164H20.8269C20.5915 54.5259 20.2036 55.3093 20.2036 55.963H17.6724C17.6724 54.2183 18.8279 51.7852 20.7099 51.7852H42.2926C44.1771 51.7852 45.3339 54.2183 45.3339 55.963Z" fill="#201F54"/>
<path d="M30.1035 52.9861H27.5722V40.9804C17.6965 34.9598 11.5918 24.095 11.5918 12.4449C11.5918 9.07141 12.0968 5.7327 13.0928 2.51991L13.3687 1.62891H19.6279V4.16016H15.2495C14.5015 6.85404 14.1237 9.63651 14.1237 12.4449C14.1237 23.4407 20.0057 33.6796 29.4732 39.1654L30.1041 39.5312L30.1035 52.9861Z" fill="#201F54"/>
<path d="M35.4307 48.9994H32.8994V39.5306L33.531 39.1648C42.9966 33.6828 48.8773 23.4439 48.8773 12.4449C48.8773 9.63462 48.4995 6.85214 47.7547 4.16016H34.4296V1.62891H49.6354L49.9113 2.52054C50.9048 5.73016 51.4085 9.06951 51.4085 12.4449C51.4085 24.0975 45.3051 34.9623 35.4307 40.9804V48.9994Z" fill="#201F54"/>
<path d="M42.9816 34.3826L42.1685 31.9855C52.1023 28.6158 58.9519 18.9097 59.5157 7.59375H49.5806V5.0625H62.0926L62.0824 6.33825C61.9818 19.271 54.3058 30.5414 42.9816 34.3826Z" fill="#201F54"/>
<path d="M20.024 34.3839C8.69983 30.544 1.02128 19.2729 0.916863 6.33825L0.906738 5.0625H13.4206V7.59375H3.48545C4.05182 18.9116 10.9033 28.6177 20.8372 31.9868L20.024 34.3839Z" fill="#201F54"/>
<path d="M21.123 67.1211H41.8799V69.6523H21.123V67.1211Z" fill="#201F54"/>
<path d="M52.3235 80.9994H10.6807V72.4495H12.1121V58.7852H50.8927V72.4495H52.3242L52.3235 80.9994ZM13.2119 78.4682H49.7929V74.9807H48.3615V61.3164H14.6427V74.9807H13.2119V78.4682Z" fill="#201F54"/>
<path d="M18.6147 21.1594V0H31.4305V21.1587L25.0213 17.1423L18.6147 21.1594ZM25.0207 14.1547L28.8992 16.5847V2.53125H21.146V16.5841L25.0207 14.1547Z" fill="#201F54"/>
</svg>
