<svg width="364" height="384" viewBox="0 0 364 384" fill="none" xmlns="http://www.w3.org/2000/svg">
<path d="M182 384C282.24 384 363.5 298.039 363.5 192C363.5 85.9613 282.24 0 182 0C81.7603 0 0.5 85.9613 0.5 192C0.5 298.039 81.7603 384 182 384Z" fill="#201F54"/>
<path opacity="0.2" d="M273.03 312.188C273.03 318.785 267.92 324.182 261.674 324.182H102.699C96.4532 324.182 91.3433 318.785 91.3433 312.188C91.3433 305.592 96.4532 300.195 102.699 300.195H261.674C267.92 300.195 273.03 305.592 273.03 312.188Z" fill="#231F20"/>
<path d="M204.897 270.213C204.897 280.407 197.516 288.203 187.864 288.203H176.509C166.857 288.203 159.476 280.407 159.476 270.213V210.247C159.476 200.053 166.857 192.258 176.509 192.258H187.864C197.516 192.258 204.897 200.053 204.897 210.247V270.213Z" fill="#E0995E"/>
<path opacity="0.2" d="M233.286 204.251C227.04 204.251 221.93 198.854 221.93 192.257C221.93 185.661 227.04 180.264 233.286 180.264C251.454 180.264 273.03 147.283 273.03 126.895C273.03 110.704 273.03 108.306 250.319 108.306H114.054C91.3433 108.306 91.3433 110.105 91.3433 126.895C91.3433 147.283 112.919 180.264 131.087 180.264C137.333 180.264 142.443 185.661 142.443 192.257C142.443 198.854 137.333 204.251 131.087 204.251C99.292 204.251 68.6324 159.876 68.6324 126.895C68.6324 87.9173 90.2077 84.3193 114.054 84.3193H250.319C274.165 84.3193 295.741 87.3176 295.741 126.895C295.741 159.876 265.081 204.251 233.286 204.251Z" fill="#231F20"/>
<path d="M233.286 192.257C227.04 192.257 221.93 186.86 221.93 180.264C221.93 173.668 227.04 168.271 233.286 168.271C251.454 168.271 273.03 135.29 273.03 114.902C273.03 98.711 273.03 96.3124 250.319 96.3124H114.054C91.3433 96.3124 91.3433 98.1114 91.3433 114.902C91.3433 135.29 112.919 168.271 131.087 168.271C137.333 168.271 142.443 173.668 142.443 180.264C142.443 186.86 137.333 192.257 131.087 192.257C99.292 192.257 68.6324 147.883 68.6324 114.902C68.6324 75.9241 90.2077 72.3262 114.054 72.3262H250.319C274.165 72.3262 295.741 75.3245 295.741 114.902C295.741 147.883 265.081 192.257 233.286 192.257Z" fill="#E0995E"/>
<path d="M102.699 72.3262C106.105 191.658 150.391 216.244 182.186 216.244C213.982 216.244 257.7 191.658 261.674 72.3262H102.699Z" fill="#F5CF87"/>
<path d="M248.616 301.995C241.803 280.407 214.55 264.216 182.187 264.216C149.824 264.216 122.571 280.407 115.758 301.995H248.616Z" fill="#F5CF87"/>
<path d="M273.03 300.196C273.03 306.792 267.92 312.189 261.674 312.189H102.699C96.4532 312.189 91.3433 306.792 91.3433 300.196C91.3433 293.6 96.4532 288.203 102.699 288.203H261.674C267.92 288.203 273.03 293.6 273.03 300.196Z" fill="#4F5D73"/>
<path opacity="0.2" d="M216.253 252.223C216.253 258.819 211.143 264.216 204.897 264.216H159.476C153.23 264.216 148.12 258.819 148.12 252.223C148.12 245.627 153.23 240.23 159.476 240.23H204.897C211.143 240.23 216.253 245.627 216.253 252.223Z" fill="#231F20"/>
<path d="M216.253 240.23C216.253 246.826 211.143 252.223 204.897 252.223H159.476C153.23 252.223 148.12 246.826 148.12 240.23C148.12 233.634 153.23 228.237 159.476 228.237H204.897C211.143 228.237 216.253 233.634 216.253 240.23Z" fill="#F5CF87"/>
<path opacity="0.2" d="M273.03 96.3125C273.03 102.909 267.92 108.306 261.674 108.306H102.699C96.4532 108.306 91.3433 102.909 91.3433 96.3125C91.3433 89.7162 96.4532 84.3193 102.699 84.3193H261.674C267.92 84.3193 273.03 89.7162 273.03 96.3125Z" fill="#231F20"/>
<path d="M273.03 84.3193C273.03 90.9155 267.92 96.3124 261.674 96.3124H102.699C96.4532 96.3124 91.3433 90.9155 91.3433 84.3193C91.3433 77.7231 96.4532 72.3262 102.699 72.3262H261.674C267.92 72.3262 273.03 77.7231 273.03 84.3193Z" fill="#F5CF87"/>
</svg>
